# xmcd CD database file
#
# Track frame offsets:
#	150
#	19154
#	34488
#	54013
#	66667
#	90380
#
# Disc length: 1468 seconds
#
# Revision: 0
# Processed by: cddbd v1.5.2PL0 Copyright (c) Steve Scherf et al.
# Submitted via: CDex 1.51
#
DISCID=4905ba06
DTITLE=Ian Thomas - Love at the Grey Eagle
DYEAR=2008
DGENRE=Country
TTITLE0=Blue Yodel #5
TTITLE1=Before The Sun Goes Down
TTITLE2=You Got To  Change Your Mind
TTITLE3=Poor Children
TTITLE4=Poor Boy Rag
TTITLE5=Halfway Gone
EXTD=YEAR: 2008
EXTT0=
EXTT1=
EXTT2=
EXTT3=
EXTT4=
EXTT5=
PLAYORDER=
